# xmcd CD database file
#
# Track frame offsets:
#	150
#	21716
#	41087
#	67245
#	74257
#	85917
#	100849
#	107108
#	128555
#	154052
#	168169
#	184039
#	200556
#	217901
#	241158
#	267237
#
# Disc length: 3914 seconds
#
# Revision: 0
# Processed by: cddbd v1.5.2PL0 Copyright (c) Steve Scherf et al.
# Submitted via: CDex 1.51
#
DISCID=e30f4810
DTITLE=Sketches For Albinos - Days Of Being Wild And Kind
DYEAR=2010
DGENRE=New Age
TTITLE0=Sorbonne Midnight
TTITLE1=Daniel Likes Birds
TTITLE2=Red Sky On Fire
TTITLE3=Romy Schneider
TTITLE4=More Dixieland And Polka
TTITLE5=Lotta
TTITLE6=Anna Karina
TTITLE7=Kids With No Energy
TTITLE8=A Meeting At The Merry-go-round
TTITLE9=We Live For Spring
TTITLE10=Skeye
TTITLE11=She's With Snoban Now
TTITLE12=Jól
TTITLE13=She's With Snoban Now [Moskitoo Remix]
TTITLE14=Sorbonne Midnight [Chihei Hatakeyama Remix]
TTITLE15=A Meeting At The Merry-go-round [Federico Durand Remix]
EXTD=YEAR: 2010
EXTT0=
EXTT1=
EXTT2=
EXTT3=
EXTT4=
EXTT5=
EXTT6=
EXTT7=
EXTT8=
EXTT9=
EXTT10=
EXTT11=
EXTT12=
EXTT13=
EXTT14=
EXTT15=
PLAYORDER=
